<?xml version="1.0" encoding="utf-8"?>
<!-- Generator: Adobe Illustrator 19.1.0, SVG Export Plug-In . SVG Version: 6.00 Build 0)  -->
<!DOCTYPE svg PUBLIC "-//W3C//DTD SVG 1.1//EN" "http://www.w3.org/Graphics/SVG/1.1/DTD/svg11.dtd">
<svg version="1.1" id="Layer_1" xmlns="http://www.w3.org/2000/svg" xmlns:xlink="http://www.w3.org/1999/xlink" x="0px" y="0px"
	 viewBox="-188 221.8 413.8 170.2" style="enable-background:new -188 221.8 413.8 170.2;" xml:space="preserve">
<style type="text/css">
	.st0{fill-rule:evenodd;clip-rule:evenodd;fill:#FFFFFF;}
	.st1{fill:#FFFFFF;}
	.st2{font-family:'Nexa-Bold';}
	.st3{font-size:26.2759px;}
</style>
<path class="st0" d="M129.1,255.8c-2.7,1.4-9-1.3-11.9,2c44.9,8.9,16.9,80.2-19.8,76.2c-5.8-0.6-11.7-3.6-14.9-6.9
	c-4.4-4.8-4-10.9-5.9-18.8c-0.7-2.8-2.8-5.6-3-8.9c-1.2-18.6,11.3-29.2,25.7-36.6c6.5-3.4,15.3-9.3,19.8-9.9
	C123,252.4,127.5,250.9,129.1,255.8z M103.4,331.1c16.9-1.1,33.4-25.1,33.7-43.6c0.1-10.9-4.3-21.4-12.9-24.8
	c-2.7-1.1-13.2-2-14.9-1c-13,8.1-23.7,27.6-28.7,45.5c11.8,10.6,31.7-1.6,39.6-1c-4.9,5.4-19.2,9.9-29.7,8.9c-4-0.4-9.5-5.1-9.9-2
	C83.3,326.1,92.1,331.8,103.4,331.1z M78.6,302.4c2.2-15.3,14.3-26,18.8-35.7C87.5,273.8,73.4,286.6,78.6,302.4z"/>
<path class="st0" d="M-144,226c1.5,0,2.9,0,4.4,0c4.1,22.2,4.9,47.6,4.4,74.4c14.8-1.2,31.3-1.8,51-1.5c4.5-20.4,1.2-47.5,2.9-67.1
	c9.2,14.1,2.9,46.6,2.9,65.6c3.1,4.2,16.6-2,16,5.8c-3.3,2.8-11,1.3-14.6,0c-6.9,7.9,0.7,33.9-4.4,39.4c-4.5-1.8-4.9-7.7-7.3-11.7
	c-11-11.9-26.1-19.6-46.7-21.9c-0.4,5.8,6.6,11.8,1.5,17.5c-7.8,0.1-5.1-10.5-5.8-17.5c-13.1-5.2-30.8,3.7-42.3,0
	c7-10,31.4-5.5,40.8-8.8C-139.7,274.2-142.7,244.7-144,226z M-125.1,304.8c-2.2,0.2-5.4-0.5-5.8,1.5c2.4,0,4.9,0,7.3,0
	c11.8,2.9,20,6.2,27.7,11.7c3.8,2.7,10.5,12.5,11.7,7.3c0-7.3,0-14.6,0-21.9C-99.4,302.2-110.1,305.6-125.1,304.8z"/>
<path class="st0" d="M68.7,265.7c1,0,2,0,3,0c-1.7,6.6,0.2,16.7-4.9,19.8C64.7,280.3,67.9,273.3,68.7,265.7z"/>
<path class="st0" d="M162.8,265.7c1,0,2,0,3,0c-1.7,6.6,0.2,16.7-5,19.8C158.8,280.3,162,273.3,162.8,265.7z"/>
<path class="st0" d="M61.8,267.7c1.6-0.3,1.7,0.9,3,1c-1,7.2-2.3,14.2-4,20.8C55.3,284.8,61.6,273.2,61.8,267.7z"/>
<path class="st0" d="M155.9,267.7c1.6-0.3,1.7,0.9,3,1c-1,7.2-2.3,14.2-4,20.8C149.5,285.1,155.4,273.2,155.9,267.7z"/>
<path class="st0" d="M-34.7,306.3c6.3-0.9,8.2,2.5,11.7,4.4c0.8,5.7-5.1,9.1-1.5,13.1c8.2-2.5,13.8-7.6,14.6-17.5
	c6.3-0.9,8.2,2.5,11.7,4.4c0.8,5.7-5.1,9.1-1.5,13.1c10.5-0.2,8.8-12.6,18.9-13.1c0,4.4,0,8.8,0,13.1c9.7,0,8.8-10.6,13.1-16
	c6.6,1.6,4.4,12.1,7.3,17.5c5.8,0.4,12.1-11.2,19-14.6c-0.7,12.5-13,13.3-17.5,21.9c2.5,19.4,8.7,56.1-11.7,56.9
	c-11.6,0.4-16.8-13.8-16-26.3c0.9-14.9,13.2-26.9,21.9-32.1c1-5.9-1.4-8.3-1.5-13.1c-4.6,3.2-5.6,9.9-13.1,10.2
	c-4.1-0.3-6.2-2.5-5.8-7.3c-6.7,1.6-8.3,8.3-17.5,7.3c-4.4-3.1-2.5-9.2-1.5-14.6c-6.2,0.6-10,16.2-23.3,14.6c-5-3.6-1.7-9.8-1.5-16
	c-4.4,5.8-8,12.4-16,14.6c-3.8,0.4-6.3-0.5-5.8-4.4c-3.2,2.6-5.9,5.7-13.1,4.4c-3.6-10.3,3.3-20.4,16-19c4.3,4-1.8,11.7,1.5,14.6
	C-39.5,319.9-34,316.1-34.7,306.3z M-60.9,322.3c6.8,0,8.8-4.8,10.2-10.2C-57.5,312.1-59.5,316.9-60.9,322.3z M17.8,363.1
	c-0.7,9.5,3.1,22.2,11.7,21.9c15.4-0.6,10.6-37.2,5.8-49.6C30.2,341.9,18.7,350.3,17.8,363.1z"/>
<text transform="matrix(1 0 0 1 -159.2281 379.5997)" class="st1 st2 st3">Productions</text>
</svg>
