<?xml version="1.0" encoding="utf-8"?>
<!-- Generator: Adobe Illustrator 19.1.0, SVG Export Plug-In . SVG Version: 6.00 Build 0)  -->
<!DOCTYPE svg PUBLIC "-//W3C//DTD SVG 1.1//EN" "http://www.w3.org/Graphics/SVG/1.1/DTD/svg11.dtd">
<svg version="1.1" id="Layer_1" xmlns="http://www.w3.org/2000/svg" xmlns:xlink="http://www.w3.org/1999/xlink" x="0px" y="0px"
	 viewBox="-432 315.8 413.8 170.2" style="enable-background:new -432 315.8 413.8 170.2;" xml:space="preserve">
<style type="text/css">
	.st0{fill:#1B2128;}
</style>
<path class="st0" d="M-105.2,349.9c-2.7,1.4-9-1.3-11.9,2c44.9,8.9,16.9,80.2-19.8,76.2c-5.8-0.6-11.7-3.6-14.9-6.9
	c-4.4-4.8-4-10.9-5.9-18.8c-0.7-2.8-2.8-5.6-3-8.9c-1.2-18.6,11.3-29.2,25.7-36.6c6.5-3.4,15.3-9.3,19.8-9.9
	C-111.3,346.5-106.8,345-105.2,349.9z M-130.9,425.2c16.9-1.1,33.4-25.1,33.7-43.6c0.1-10.9-4.3-21.4-12.9-24.8
	c-2.7-1.1-13.2-2-14.9-1c-13,8.1-23.7,27.6-28.7,45.5c11.8,10.6,31.7-1.6,39.6-1c-4.9,5.4-19.2,9.9-29.7,8.9c-4-0.4-9.5-5.1-9.9-2
	C-151,420.2-142.2,425.9-130.9,425.2z M-155.7,396.5c2.2-15.3,14.3-26,18.8-35.7C-146.8,367.9-160.9,380.7-155.7,396.5z"/>
<path class="st0" d="M-378.3,320.1c1.5,0,2.9,0,4.4,0c4.1,22.2,4.9,47.6,4.4,74.4c14.8-1.2,31.3-1.8,51-1.5
	c4.5-20.4,1.2-47.5,2.9-67.1c9.2,14.1,2.9,46.6,2.9,65.6c3.1,4.2,16.6-2,16,5.8c-3.3,2.8-11,1.3-14.6,0c-6.9,7.9,0.7,33.9-4.4,39.4
	c-4.5-1.8-4.9-7.7-7.3-11.7c-11-11.9-26.1-19.6-46.7-21.9c-0.4,5.8,6.6,11.8,1.5,17.5c-7.8,0.1-5.1-10.5-5.8-17.5
	c-13.1-5.2-30.8,3.7-42.3,0c7-10,31.4-5.5,40.8-8.8C-374,368.3-377,338.8-378.3,320.1z M-359.4,398.9c-2.2,0.2-5.4-0.5-5.8,1.5
	c2.4,0,4.9,0,7.3,0c11.8,2.9,20,6.2,27.7,11.7c3.8,2.7,10.5,12.5,11.7,7.3c0-7.3,0-14.6,0-21.9
	C-333.7,396.3-344.4,399.7-359.4,398.9z"/>
<path class="st0" d="M-165.6,359.8c1,0,2,0,3,0c-1.7,6.6,0.2,16.7-4.9,19.8C-169.6,374.4-166.4,367.4-165.6,359.8z"/>
<path class="st0" d="M-71.5,359.8c1,0,2,0,3,0c-1.7,6.6,0.2,16.7-5,19.8C-75.5,374.4-72.3,367.4-71.5,359.8z"/>
<path class="st0" d="M-172.5,361.8c1.6-0.3,1.7,0.9,3,1c-1,7.2-2.3,14.2-4,20.8C-179,378.9-172.7,367.3-172.5,361.8z"/>
<path class="st0" d="M-78.4,361.8c1.6-0.3,1.7,0.9,3,1c-1,7.2-2.3,14.2-4,20.8C-84.8,379.2-78.9,367.3-78.4,361.8z"/>
<path class="st0" d="M-269,400.4c6.3-0.9,8.2,2.5,11.7,4.4c0.8,5.7-5.1,9.1-1.5,13.1c8.2-2.5,13.8-7.6,14.6-17.5
	c6.3-0.9,8.2,2.5,11.7,4.4c0.8,5.7-5.1,9.1-1.5,13.1c10.5-0.2,8.8-12.6,18.9-13.1c0,4.4,0,8.8,0,13.1c9.7,0,8.8-10.6,13.1-16
	c6.6,1.6,4.4,12.1,7.3,17.5c5.8,0.4,12.1-11.2,19-14.6c-0.7,12.5-13,13.3-17.5,21.9c2.5,19.4,8.7,56.1-11.7,56.9
	c-11.6,0.4-16.8-13.8-16-26.3c0.9-14.9,13.2-26.9,21.9-32.1c1-5.9-1.4-8.3-1.5-13.1c-4.6,3.2-5.6,9.9-13.1,10.2
	c-4.1-0.3-6.2-2.5-5.8-7.3c-6.7,1.6-8.3,8.3-17.5,7.3c-4.4-3.1-2.5-9.2-1.5-14.6c-6.2,0.6-10,16.2-23.3,14.6c-5-3.6-1.7-9.8-1.5-16
	c-4.4,5.8-8,12.4-16,14.6c-3.8,0.4-6.3-0.5-5.8-4.4c-3.2,2.6-5.9,5.7-13.1,4.4c-3.6-10.3,3.3-20.4,16-19c4.3,4-1.8,11.7,1.5,14.6
	C-273.8,414-268.3,410.2-269,400.4z M-295.2,416.4c6.8,0,8.8-4.8,10.2-10.2C-291.8,406.2-293.8,411-295.2,416.4z M-216.5,457.2
	c-0.7,9.5,3.1,22.2,11.7,21.9c15.4-0.6,10.6-37.2,5.8-49.6C-204.1,436-215.6,444.4-216.5,457.2z"/>
<g>
	<path class="st0" d="M-388.3,468.1v5.6h-2.9v-18.4c2.8,0,5.7,0,8.5,0c8.8,0,8.8,12.7,0,12.8H-388.3z M-388.3,465.3h5.6
		c4.9,0,4.8-7.4,0-7.4h-5.6V465.3z"/>
	<path class="st0" d="M-371.1,460.7l0.2,1.7c0.9-1.7,2.4-2,3.8-2c1.3,0,2.5,0.4,3.2,1.1l-1.2,2.4c-0.7-0.5-1.3-0.8-2.3-0.8
		c-1.9,0-3.5,1.2-3.5,3.5v7h-2.7v-13L-371.1,460.7L-371.1,460.7z"/>
	<path class="st0" d="M-349.9,467.2c0,3.8-2.7,6.7-6.7,6.7s-6.7-2.9-6.7-6.7s2.7-6.8,6.7-6.8C-352.6,460.5-349.9,463.4-349.9,467.2z
		 M-360.6,467.2c0,2.3,1.5,4.2,4,4.2s4-1.9,4-4.2s-1.6-4.3-4-4.3C-359.1,463-360.6,464.9-360.6,467.2z"/>
	<path class="st0" d="M-334,455.3v18.4h-2.5l-0.2-2c-1,1.7-2.8,2.3-4.5,2.3c-3.8,0-6.6-2.5-6.6-6.8c0-4.4,2.8-6.8,6.6-6.8
		c1.6,0,3.7,0.8,4.5,2.3v-7.4H-334z M-345.1,467.2c0,2.6,1.8,4.2,4.1,4.2s4.1-1.7,4.1-4.2s-1.9-4.2-4.1-4.2
		C-343.3,463-345.1,464.6-345.1,467.2z"/>
	<path class="st0" d="M-327.8,460.7v6.9c0,2.2,1.3,3.7,3.5,3.7c2.1,0,3.6-1.8,3.6-3.9v-6.8h2.7v13h-2.4l-0.2-1.9
		c-1.3,1.4-2.7,2.1-4.5,2.1c-3.2,0-5.5-2.3-5.5-6.2v-7L-327.8,460.7L-327.8,460.7z"/>
	<path class="st0" d="M-303.3,472c-1.4,1.4-3,2-4.9,2c-3.7,0-6.8-2.3-6.8-6.8s3.1-6.8,6.8-6.8c1.8,0,3.3,0.6,4.7,1.9l-1.7,1.8
		c-0.8-0.8-1.9-1.2-2.9-1.2c-2.3,0-4.2,1.7-4.2,4.2c0,2.7,1.9,4.2,4.1,4.2c1.1,0,2.2-0.3,3.1-1.2L-303.3,472z"/>
	<path class="st0" d="M-296.8,457v3.8h3.8v2.3h-3.8v6.2c0,1.4,0.6,2.1,1.9,2.1c0.5,0,1.1-0.2,1.7-0.4l0.8,2.3
		c-0.9,0.4-1.7,0.6-2.6,0.6c-2.8,0.1-4.4-1.5-4.4-4.6v-6.2h-2.5v-2.3h2.5v-3.5L-296.8,457z"/>
	<path class="st0" d="M-287.2,456.9c0,2.2-3.4,2.2-3.4,0S-287.2,454.7-287.2,456.9z M-290.2,460.7v13h2.7v-13H-290.2z"/>
	<path class="st0" d="M-271.3,467.2c0,3.8-2.7,6.7-6.7,6.7s-6.7-2.9-6.7-6.7s2.7-6.8,6.7-6.8C-274,460.5-271.3,463.4-271.3,467.2z
		 M-282,467.2c0,2.3,1.5,4.2,4,4.2s4-1.9,4-4.2s-1.6-4.3-4-4.3C-280.5,463-282,464.9-282,467.2z"/>
	<path class="st0" d="M-258.6,473.7v-6.9c0-2.2-1.3-3.7-3.5-3.7s-3.6,1.8-3.6,3.9v6.8h-2.7v-13h2.5l0.2,1.9c1.2-1.4,2.7-2.1,4.4-2.1
		c3.2,0,5.6,2.2,5.6,6.2v7L-258.6,473.7L-258.6,473.7z"/>
	<path class="st0" d="M-244.1,463.9c-1-0.9-2.1-1.2-3.4-1.2c-1.7,0-2.8,0.5-2.8,1.6s1.2,1.5,2.8,1.7c2.4,0.2,5.5,0.7,5.5,4.1
		c0,2.4-2.2,4.1-5.5,4.1c-2.1,0-4.2-0.5-5.9-2.4l1.4-1.9c1.2,1.3,3,1.9,4.5,1.9c1.3,0,2.7-0.5,2.8-1.7c0-1.2-1.1-1.6-3-1.8
		c-2.4-0.2-5.3-1-5.3-3.9s3-3.9,5.4-3.9c2,0,3.5,0.4,5,1.7L-244.1,463.9z"/>
</g>
</svg>
